%TF.GenerationSoftware,KiCad,Pcbnew,10.0.6*%
%TF.CreationDate,2026-10-07T00:53:55-05:00*%
%TF.ProjectId,SpotifyDisplay,53706f74-6966-4794-9469-73706c61792e,rev?*%
%TF.SameCoordinates,Original*%
%TF.FileFunction,Copper,L2,Bot*%
%TF.FilePolarity,Positive*%
%FSLAX46Y46*%
G04 Gerber Fmt 4.6, Leading zero omitted, Abs format (unit mm)*
G04 Created by KiCad (PCBNEW 10.0.6) date 2026-10-07 00:53:55*
%MOMM*%
%LPD*%
G01*
G04 APERTURE LIST*
G04 Aperture macros list*
%AMRoundRect*
0 Rectangle with rounded corners*
0 $1 Rounding radius*
0 $2 $3 $4 $5 $6 $7 $8 $9 X,Y pos of 4 corners*
0 Add a 4 corners polygon primitive as box body*
4,1,4,$2,$3,$4,$5,$6,$7,$8,$9,$2,$3,0*
0 Add four circle primitives for the rounded corners*
1,1,$1+$1,$2,$3*
1,1,$1+$1,$4,$5*
1,1,$1+$1,$6,$7*
1,1,$1+$1,$8,$9*
0 Add four rect primitives between the rounded corners*
20,1,$1+$1,$2,$3,$4,$5,0*
20,1,$1+$1,$4,$5,$6,$7,0*
20,1,$1+$1,$6,$7,$8,$9,0*
20,1,$1+$1,$8,$9,$2,$3,0*%
G04 Aperture macros list end*
%TA.AperFunction,ComponentPad*%
%ADD10C,1.524000*%
%TD*%
%TA.AperFunction,ComponentPad*%
%ADD11C,2.200000*%
%TD*%
%TA.AperFunction,ComponentPad*%
%ADD12RoundRect,0.750000X-1.250000X-0.750000X1.250000X-0.750000X1.250000X0.750000X-1.250000X0.750000X0*%
%TD*%
%TA.AperFunction,ComponentPad*%
%ADD13C,1.800000*%
%TD*%
%TA.AperFunction,ComponentPad*%
%ADD14R,1.800000X1.800000*%
%TD*%
%TA.AperFunction,ComponentPad*%
%ADD15C,1.700000*%
%TD*%
%TA.AperFunction,ComponentPad*%
%ADD16R,1.700000X1.700000*%
%TD*%
G04 APERTURE END LIST*
D10*
%TO.P,U1,14,VBUS_14*%
%TO.N,+5V*%
X76500000Y-53925000D03*
%TO.P,U1,13,GND_13*%
%TO.N,GND*%
X79040000Y-53925000D03*
%TO.P,U1,12,3V3_OUT_12*%
%TO.N,+3.3V*%
X81580000Y-53925000D03*
%TO.P,U1,11,D10_11*%
%TO.N,/SDA*%
X84120000Y-53925000D03*
%TO.P,U1,10,D9/BOOT_10*%
%TO.N,unconnected-(U1-D9{slash}BOOT-Pad10)_1*%
X86660000Y-53925000D03*
%TO.P,U1,9,D8_9*%
%TO.N,/SCL*%
X89200000Y-53925000D03*
%TO.P,U1,8,D7_8*%
%TO.N,/CS*%
X91740000Y-53925000D03*
%TO.P,U1,7,D6_7*%
%TO.N,/DC*%
X91740000Y-69165000D03*
%TO.P,U1,6,D5_6*%
%TO.N,/RES*%
X89200000Y-69165000D03*
%TO.P,U1,5,D4_5*%
%TO.N,/BL*%
X86660000Y-69165000D03*
%TO.P,U1,4,D3_4*%
%TO.N,/GPIO4*%
X84120000Y-69165000D03*
%TO.P,U1,3,D2_3*%
%TO.N,/GPIO2*%
X81580000Y-69165000D03*
%TO.P,U1,2,D1_2*%
%TO.N,/GPIO1*%
X79040000Y-69165000D03*
%TO.P,U1,1,D0_1*%
%TO.N,/GPIO0*%
X76500000Y-69165000D03*
%TD*%
D11*
%TO.P,SW1,2,2_2*%
%TO.N,GND*%
X84610000Y-95960000D03*
%TO.P,SW1,1,1_1*%
%TO.N,/GPIO0*%
X90960000Y-93420000D03*
%TD*%
%TO.P,SW2,2,2_2*%
%TO.N,GND*%
X107610000Y-95960000D03*
%TO.P,SW2,1,1_1*%
%TO.N,/GPIO1*%
X113960000Y-93420000D03*
%TD*%
%TO.P,SW3,2,2_2*%
%TO.N,GND*%
X129610000Y-95960000D03*
%TO.P,SW3,1,1_1*%
%TO.N,/GPIO2*%
X135960000Y-93420000D03*
%TD*%
D12*
%TO.P,J2,MP*%
%TO.N,N/C*%
X153450000Y-103400000D03*
X153450000Y-94600000D03*
D13*
%TO.P,J2,3,Pin_3_3*%
%TO.N,GND*%
X146450000Y-101500000D03*
%TO.P,J2,2,Pin_2_2*%
%TO.N,/GPIO4*%
X146450000Y-99000000D03*
D14*
%TO.P,J2,1,Pin_1_1*%
%TO.N,+3.3V*%
X146450000Y-96500000D03*
%TD*%
D15*
%TO.P,J1,8,Pin_8_8*%
%TO.N,/BL*%
X105000000Y-60720000D03*
%TO.P,J1,7,Pin_7_7*%
%TO.N,/CS*%
X105000000Y-63260000D03*
%TO.P,J1,6,Pin_6_6*%
%TO.N,/DC*%
X105000000Y-65800000D03*
%TO.P,J1,5,Pin_5_5*%
%TO.N,/RES*%
X105000000Y-68340000D03*
%TO.P,J1,4,Pin_4_4*%
%TO.N,/SDA*%
X105000000Y-70880000D03*
%TO.P,J1,3,Pin_3_3*%
%TO.N,/SCL*%
X105000000Y-73420000D03*
%TO.P,J1,2,Pin_2_2*%
%TO.N,+3.3V*%
X105000000Y-75960000D03*
D16*
%TO.P,J1,1,Pin_1_1*%
%TO.N,GND*%
X105000000Y-78500000D03*
%TD*%
%TA.AperFunction,Conductor*%
%TO.N,GND*%
G36*
X164002324Y-48500587D02*
G01*
X164042259Y-48502081D01*
X164481082Y-48518500D01*
X164490306Y-48519192D01*
X164964101Y-48572575D01*
X164973247Y-48573954D01*
X165335901Y-48642572D01*
X165441708Y-48662592D01*
X165450749Y-48664655D01*
X165624139Y-48711114D01*
X165911287Y-48788056D01*
X165920133Y-48790784D01*
X166370158Y-48948255D01*
X166378778Y-48951637D01*
X166535645Y-49020078D01*
X166815784Y-49142302D01*
X166824138Y-49146326D01*
X167245640Y-49369096D01*
X167253671Y-49373732D01*
X167657370Y-49627394D01*
X167665031Y-49632618D01*
X168048640Y-49915733D01*
X168055891Y-49921515D01*
X168417267Y-50232505D01*
X168424064Y-50238812D01*
X168761187Y-50575935D01*
X168767494Y-50582732D01*
X169078484Y-50944108D01*
X169084266Y-50951359D01*
X169367381Y-51334968D01*
X169372605Y-51342629D01*
X169626267Y-51746328D01*
X169630903Y-51754359D01*
X169853673Y-52175861D01*
X169857697Y-52184215D01*
X170048359Y-52621215D01*
X170051747Y-52629848D01*
X170209212Y-53079859D01*
X170211945Y-53088719D01*
X170335344Y-53549250D01*
X170337407Y-53558291D01*
X170426043Y-54026741D01*
X170427425Y-54035910D01*
X170480806Y-54509681D01*
X170481499Y-54518928D01*
X170499413Y-54997674D01*
X170499500Y-55002311D01*
X170499500Y-105997688D01*
X170499413Y-106002325D01*
X170481499Y-106481071D01*
X170480806Y-106490318D01*
X170427425Y-106964089D01*
X170426043Y-106973258D01*
X170337407Y-107441708D01*
X170335344Y-107450749D01*
X170211945Y-107911280D01*
X170209212Y-107920140D01*
X170051747Y-108370151D01*
X170048359Y-108378784D01*
X169857697Y-108815784D01*
X169853673Y-108824138D01*
X169630903Y-109245640D01*
X169626267Y-109253671D01*
X169372605Y-109657370D01*
X169367381Y-109665031D01*
X169084266Y-110048640D01*
X169078484Y-110055891D01*
X168767494Y-110417267D01*
X168761187Y-110424064D01*
X168424064Y-110761187D01*
X168417267Y-110767494D01*
X168055891Y-111078484D01*
X168048640Y-111084266D01*
X167665031Y-111367381D01*
X167657370Y-111372605D01*
X167253671Y-111626267D01*
X167245640Y-111630903D01*
X166824138Y-111853673D01*
X166815784Y-111857697D01*
X166378784Y-112048359D01*
X166370151Y-112051747D01*
X165920140Y-112209212D01*
X165911280Y-112211945D01*
X165450749Y-112335344D01*
X165441708Y-112337407D01*
X164973258Y-112426043D01*
X164964089Y-112427425D01*
X164490318Y-112480806D01*
X164481071Y-112481499D01*
X164002325Y-112499413D01*
X163997688Y-112499500D01*
X75002312Y-112499500D01*
X74997675Y-112499413D01*
X74518928Y-112481499D01*
X74509681Y-112480806D01*
X74035910Y-112427425D01*
X74026741Y-112426043D01*
X73558291Y-112337407D01*
X73549250Y-112335344D01*
X73088719Y-112211945D01*
X73079859Y-112209212D01*
X72629848Y-112051747D01*
X72621215Y-112048359D01*
X72184215Y-111857697D01*
X72175861Y-111853673D01*
X71754359Y-111630903D01*
X71746328Y-111626267D01*
X71342629Y-111372605D01*
X71334968Y-111367381D01*
X70951359Y-111084266D01*
X70944108Y-111078484D01*
X70582732Y-110767494D01*
X70575935Y-110761187D01*
X70238812Y-110424064D01*
X70232505Y-110417267D01*
X69921510Y-110055885D01*
X69915733Y-110048640D01*
X69632618Y-109665031D01*
X69627394Y-109657370D01*
X69373732Y-109253671D01*
X69369096Y-109245640D01*
X69146326Y-108824138D01*
X69142302Y-108815784D01*
X68951640Y-108378784D01*
X68948252Y-108370151D01*
X68790787Y-107920140D01*
X68788054Y-107911280D01*
X68752043Y-107776887D01*
X68664655Y-107450749D01*
X68662592Y-107441708D01*
X68642572Y-107335901D01*
X68573954Y-106973247D01*
X68572574Y-106964089D01*
X68519193Y-106490318D01*
X68518500Y-106481070D01*
X68500587Y-106002324D01*
X68500500Y-105997688D01*
X68500500Y-98413389D01*
X82239500Y-98413389D01*
X82239500Y-98586611D01*
X82266598Y-98757701D01*
X82320127Y-98922445D01*
X82398768Y-99076788D01*
X82500586Y-99216928D01*
X82623072Y-99339414D01*
X82763212Y-99441232D01*
X82917555Y-99519873D01*
X83082299Y-99573402D01*
X83253389Y-99600500D01*
X83253390Y-99600500D01*
X83426610Y-99600500D01*
X83426611Y-99600500D01*
X83597701Y-99573402D01*
X83762445Y-99519873D01*
X83916788Y-99441232D01*
X84056928Y-99339414D01*
X84179414Y-99216928D01*
X84281232Y-99076788D01*
X84359873Y-98922445D01*
X84413402Y-98757701D01*
X84440500Y-98586611D01*
X84440500Y-98413389D01*
X84430854Y-98352486D01*
X86169500Y-98352486D01*
X86169500Y-98647513D01*
X86201396Y-98889778D01*
X86208007Y-98939993D01*
X86282212Y-99216930D01*
X86284361Y-99224951D01*
X86284364Y-99224961D01*
X86397254Y-99497500D01*
X86397258Y-99497510D01*
X86544761Y-99752993D01*
X86724352Y-99987040D01*
X86724358Y-99987047D01*
X86932952Y-100195641D01*
X86932959Y-100195647D01*
X87167006Y-100375238D01*
X87422489Y-100522741D01*
X87422490Y-100522741D01*
X87422493Y-100522743D01*
X87695048Y-100635639D01*
X87980007Y-100711993D01*
X88272494Y-100750500D01*
X88272501Y-100750500D01*
X88567499Y-100750500D01*
X88567506Y-100750500D01*
X88859993Y-100711993D01*
X89144952Y-100635639D01*
X89417507Y-100522743D01*
X89672994Y-100375238D01*
X89907042Y-100195646D01*
X90115646Y-99987042D01*
X90295238Y-99752994D01*
X90442743Y-99497507D01*
X90555639Y-99224952D01*
X90631993Y-98939993D01*
X90670500Y-98647506D01*
X90670500Y-98413389D01*
X92399500Y-98413389D01*
X92399500Y-98586611D01*
X92426598Y-98757701D01*
X92480127Y-98922445D01*
X92558768Y-99076788D01*
X92660586Y-99216928D01*
X92783072Y-99339414D01*
X92923212Y-99441232D01*
X93077555Y-99519873D01*
X93242299Y-99573402D01*
X93413389Y-99600500D01*
X93413390Y-99600500D01*
X93586610Y-99600500D01*
X93586611Y-99600500D01*
X93757701Y-99573402D01*
X93922445Y-99519873D01*
X94076788Y-99441232D01*
X94216928Y-99339414D01*
X94339414Y-99216928D01*
X94441232Y-99076788D01*
X94519873Y-98922445D01*
X94573402Y-98757701D01*
X94600500Y-98586611D01*
X94600500Y-98413389D01*
X105239500Y-98413389D01*
X105239500Y-98586611D01*
X105266598Y-98757701D01*
X105320127Y-98922445D01*
X105398768Y-99076788D01*
X105500586Y-99216928D01*
X105623072Y-99339414D01*
X105763212Y-99441232D01*
X105917555Y-99519873D01*
X106082299Y-99573402D01*
X106253389Y-99600500D01*
X106253390Y-99600500D01*
X106426610Y-99600500D01*
X106426611Y-99600500D01*
X106597701Y-99573402D01*
X106762445Y-99519873D01*
X106916788Y-99441232D01*
X107056928Y-99339414D01*
X107179414Y-99216928D01*
X107281232Y-99076788D01*
X107359873Y-98922445D01*
X107413402Y-98757701D01*
X107440500Y-98586611D01*
X107440500Y-98413389D01*
X107430854Y-98352486D01*
X109169500Y-98352486D01*
X109169500Y-98647513D01*
X109201396Y-98889778D01*
X109208007Y-98939993D01*
X109282212Y-99216930D01*
X109284361Y-99224951D01*
X109284364Y-99224961D01*
X109397254Y-99497500D01*
X109397258Y-99497510D01*
X109544761Y-99752993D01*
X109724352Y-99987040D01*
X109724358Y-99987047D01*
X109932952Y-100195641D01*
X109932959Y-100195647D01*
X110167006Y-100375238D01*
X110422489Y-100522741D01*
X110422490Y-100522741D01*
X110422493Y-100522743D01*
X110695048Y-100635639D01*
X110980007Y-100711993D01*
X111272494Y-100750500D01*
X111272501Y-100750500D01*
X111567499Y-100750500D01*
X111567506Y-100750500D01*
X111859993Y-100711993D01*
X112144952Y-100635639D01*
X112417507Y-100522743D01*
X112672994Y-100375238D01*
X112907042Y-100195646D01*
X113115646Y-99987042D01*
X113295238Y-99752994D01*
X113442743Y-99497507D01*
X113555639Y-99224952D01*
X113631993Y-98939993D01*
X113670500Y-98647506D01*
X113670500Y-98413389D01*
X115399500Y-98413389D01*
X115399500Y-98586611D01*
X115426598Y-98757701D01*
X115480127Y-98922445D01*
X115558768Y-99076788D01*
X115660586Y-99216928D01*
X115783072Y-99339414D01*
X115923212Y-99441232D01*
X116077555Y-99519873D01*
X116242299Y-99573402D01*
X116413389Y-99600500D01*
X116413390Y-99600500D01*
X116586610Y-99600500D01*
X116586611Y-99600500D01*
X116757701Y-99573402D01*
X116922445Y-99519873D01*
X117076788Y-99441232D01*
X117216928Y-99339414D01*
X117339414Y-99216928D01*
X117441232Y-99076788D01*
X117519873Y-98922445D01*
X117573402Y-98757701D01*
X117600500Y-98586611D01*
X117600500Y-98413389D01*
X127239500Y-98413389D01*
X127239500Y-98586611D01*
X127266598Y-98757701D01*
X127320127Y-98922445D01*
X127398768Y-99076788D01*
X127500586Y-99216928D01*
X127623072Y-99339414D01*
X127763212Y-99441232D01*
X127917555Y-99519873D01*
X128082299Y-99573402D01*
X128253389Y-99600500D01*
X128253390Y-99600500D01*
X128426610Y-99600500D01*
X128426611Y-99600500D01*
X128597701Y-99573402D01*
X128762445Y-99519873D01*
X128916788Y-99441232D01*
X129056928Y-99339414D01*
X129179414Y-99216928D01*
X129281232Y-99076788D01*
X129359873Y-98922445D01*
X129413402Y-98757701D01*
X129440500Y-98586611D01*
X129440500Y-98413389D01*
X129430854Y-98352486D01*
X131169500Y-98352486D01*
X131169500Y-98647513D01*
X131201396Y-98889778D01*
X131208007Y-98939993D01*
X131282212Y-99216930D01*
X131284361Y-99224951D01*
X131284364Y-99224961D01*
X131397254Y-99497500D01*
X131397258Y-99497510D01*
X131544761Y-99752993D01*
X131724352Y-99987040D01*
X131724358Y-99987047D01*
X131932952Y-100195641D01*
X131932959Y-100195647D01*
X132167006Y-100375238D01*
X132422489Y-100522741D01*
X132422490Y-100522741D01*
X132422493Y-100522743D01*
X132695048Y-100635639D01*
X132980007Y-100711993D01*
X133272494Y-100750500D01*
X133272501Y-100750500D01*
X133567499Y-100750500D01*
X133567506Y-100750500D01*
X133859993Y-100711993D01*
X134144952Y-100635639D01*
X134417507Y-100522743D01*
X134672994Y-100375238D01*
X134907042Y-100195646D01*
X135115646Y-99987042D01*
X135295238Y-99752994D01*
X135442743Y-99497507D01*
X135555639Y-99224952D01*
X135631993Y-98939993D01*
X135670500Y-98647506D01*
X135670500Y-98413389D01*
X137399500Y-98413389D01*
X137399500Y-98586611D01*
X137426598Y-98757701D01*
X137480127Y-98922445D01*
X137558768Y-99076788D01*
X137660586Y-99216928D01*
X137783072Y-99339414D01*
X137923212Y-99441232D01*
X138077555Y-99519873D01*
X138242299Y-99573402D01*
X138413389Y-99600500D01*
X138413390Y-99600500D01*
X138586610Y-99600500D01*
X138586611Y-99600500D01*
X138757701Y-99573402D01*
X138922445Y-99519873D01*
X139076788Y-99441232D01*
X139216928Y-99339414D01*
X139339414Y-99216928D01*
X139441232Y-99076788D01*
X139519873Y-98922445D01*
X139573402Y-98757701D01*
X139600500Y-98586611D01*
X139600500Y-98413389D01*
X139573402Y-98242299D01*
X139519873Y-98077555D01*
X139441232Y-97923212D01*
X139339414Y-97783072D01*
X139216928Y-97660586D01*
X139076788Y-97558768D01*
X138922445Y-97480127D01*
X138757701Y-97426598D01*
X138757699Y-97426597D01*
X138757698Y-97426597D01*
X138626271Y-97405781D01*
X138586611Y-97399500D01*
X138413389Y-97399500D01*
X138373728Y-97405781D01*
X138242302Y-97426597D01*
X138077552Y-97480128D01*
X137923211Y-97558768D01*
X137867115Y-97599525D01*
X137783072Y-97660586D01*
X137783070Y-97660588D01*
X137783069Y-97660588D01*
X137660588Y-97783069D01*
X137660588Y-97783070D01*
X137660586Y-97783072D01*
X137616859Y-97843256D01*
X137558768Y-97923211D01*
X137480128Y-98077552D01*
X137426597Y-98242302D01*
X137399500Y-98413389D01*
X135670500Y-98413389D01*
X135670500Y-98352494D01*
X135631993Y-98060007D01*
X135555639Y-97775048D01*
X135548389Y-97757546D01*
X135500666Y-97642331D01*
X135442743Y-97502493D01*
X135392604Y-97415650D01*
X135295238Y-97247006D01*
X135115647Y-97012959D01*
X135115641Y-97012952D01*
X134907047Y-96804358D01*
X134907040Y-96804352D01*
X134672993Y-96624761D01*
X134417510Y-96477258D01*
X134417500Y-96477254D01*
X134144961Y-96364364D01*
X134144954Y-96364362D01*
X134144952Y-96364361D01*
X133859993Y-96288007D01*
X133811113Y-96281571D01*
X133567513Y-96249500D01*
X133567506Y-96249500D01*
X133272494Y-96249500D01*
X133272486Y-96249500D01*
X132994085Y-96286153D01*
X132980007Y-96288007D01*
X132805861Y-96334669D01*
X132695048Y-96364361D01*
X132695038Y-96364364D01*
X132422499Y-96477254D01*
X132422489Y-96477258D01*
X132167006Y-96624761D01*
X131932959Y-96804352D01*
X131932952Y-96804358D01*
X131724358Y-97012952D01*
X131724352Y-97012959D01*
X131544761Y-97247006D01*
X131397258Y-97502489D01*
X131397254Y-97502499D01*
X131284364Y-97775038D01*
X131284361Y-97775048D01*
X131232106Y-97970070D01*
X131208008Y-98060004D01*
X131208006Y-98060015D01*
X131169500Y-98352486D01*
X129430854Y-98352486D01*
X129413402Y-98242299D01*
X129359873Y-98077555D01*
X129281232Y-97923212D01*
X129179414Y-97783072D01*
X129126882Y-97730540D01*
X129093397Y-97669217D01*
X129098381Y-97599525D01*
X129140253Y-97543592D01*
X129205717Y-97519175D01*
X129233961Y-97520386D01*
X129484072Y-97560000D01*
X129735928Y-97560000D01*
X129984669Y-97520602D01*
X130224184Y-97442780D01*
X130448575Y-97328446D01*
X130448581Y-97328442D01*
X130550697Y-97254250D01*
X130550698Y-97254250D01*
X129934025Y-96637578D01*
X129965258Y-96624641D01*
X130088097Y-96542563D01*
X130192563Y-96438097D01*
X130274641Y-96315258D01*
X130287577Y-96284025D01*
X130904250Y-96900698D01*
X130904250Y-96900697D01*
X130978442Y-96798581D01*
X130978446Y-96798575D01*
X131092780Y-96574184D01*
X131170602Y-96334669D01*
X131210000Y-96085928D01*
X131210000Y-95834071D01*
X131170602Y-95585328D01*
X131159817Y-95552135D01*
X145049500Y-95552135D01*
X145049500Y-97447870D01*
X145049501Y-97447876D01*
X145055908Y-97507483D01*
X145106202Y-97642328D01*
X145106206Y-97642335D01*
X145192452Y-97757544D01*
X145192455Y-97757547D01*
X145307664Y-97843793D01*
X145307671Y-97843797D01*
X145358446Y-97862735D01*
X145414380Y-97904606D01*
X145438797Y-97970070D01*
X145423945Y-98038343D01*
X145402796Y-98066596D01*
X145381757Y-98087635D01*
X145381752Y-98087641D01*
X145252187Y-98265974D01*
X145152104Y-98462393D01*
X145152103Y-98462396D01*
X145083985Y-98672047D01*
X145049500Y-98889778D01*
X145049500Y-99110221D01*
X145083985Y-99327952D01*
X145152103Y-99537603D01*
X145152104Y-99537606D01*
X145252187Y-99734025D01*
X145381752Y-99912358D01*
X145381756Y-99912363D01*
X145537636Y-100068243D01*
X145537641Y-100068247D01*
X145650151Y-100149990D01*
X145692817Y-100205319D01*
X145698796Y-100274933D01*
X145666191Y-100336728D01*
X145652513Y-100348579D01*
X145652485Y-100348932D01*
X146320590Y-101017037D01*
X146257007Y-101034075D01*
X146142993Y-101099901D01*
X146049901Y-101192993D01*
X145984075Y-101307007D01*
X145967037Y-101370590D01*
X145298932Y-100702485D01*
X145298931Y-100702485D01*
X145252616Y-100766233D01*
X145152567Y-100962589D01*
X145084473Y-101172164D01*
X145050000Y-101389818D01*
X145050000Y-101610181D01*
X145084473Y-101827835D01*
X145152567Y-102037410D01*
X145252611Y-102233756D01*
X145298932Y-102297513D01*
X145967037Y-101629408D01*
X145984075Y-101692993D01*
X146049901Y-101807007D01*
X146142993Y-101900099D01*
X146257007Y-101965925D01*
X146320590Y-101982962D01*
X145652485Y-102651065D01*
X145652485Y-102651066D01*
X145716243Y-102697388D01*
X145912589Y-102797432D01*
X146122164Y-102865526D01*
X146339819Y-102900000D01*
X146560181Y-102900000D01*
X146777835Y-102865526D01*
X146987410Y-102797432D01*
X147183760Y-102697386D01*
X147247513Y-102651066D01*
X147247514Y-102651066D01*
X147182225Y-102585777D01*
X150949500Y-102585777D01*
X150949500Y-104214208D01*
X150949501Y-104214223D01*
X150959904Y-104346413D01*
X150959905Y-104346420D01*
X151014902Y-104564678D01*
X151014903Y-104564681D01*
X151107991Y-104769622D01*
X151107997Y-104769632D01*
X151236174Y-104954645D01*
X151236178Y-104954650D01*
X151236181Y-104954654D01*
X151395346Y-105113819D01*
X151395350Y-105113822D01*
X151395354Y-105113825D01*
X151534603Y-105210297D01*
X151580374Y-105242007D01*
X151785317Y-105335096D01*
X151785321Y-105335097D01*
X152003579Y-105390094D01*
X152003581Y-105390094D01*
X152003588Y-105390096D01*
X152135783Y-105400500D01*
X154764216Y-105400499D01*
X154896412Y-105390096D01*
X155114683Y-105335096D01*
X155319626Y-105242007D01*
X155504654Y-105113819D01*
X155663819Y-104954654D01*
X155792007Y-104769626D01*
X155885096Y-104564683D01*
X155940096Y-104346412D01*
X155950500Y-104214217D01*
X155950499Y-102585784D01*
X155940096Y-102453588D01*
X155885096Y-102235317D01*
X155792007Y-102030374D01*
X155663819Y-101845346D01*
X155504654Y-101686181D01*
X155504650Y-101686178D01*
X155504645Y-101686174D01*
X155319632Y-101557997D01*
X155319630Y-101557995D01*
X155319626Y-101557993D01*
X155191947Y-101499999D01*
X155114681Y-101464903D01*
X155114678Y-101464902D01*
X154896420Y-101409905D01*
X154896413Y-101409904D01*
X154852347Y-101406436D01*
X154764217Y-101399500D01*
X154764215Y-101399500D01*
X152135791Y-101399500D01*
X152135776Y-101399501D01*
X152003586Y-101409904D01*
X152003579Y-101409905D01*
X151785321Y-101464902D01*
X151785318Y-101464903D01*
X151580377Y-101557991D01*
X151580367Y-101557997D01*
X151395354Y-101686174D01*
X151395342Y-101686184D01*
X151236184Y-101845342D01*
X151236174Y-101845354D01*
X151107997Y-102030367D01*
X151107991Y-102030377D01*
X151014903Y-102235318D01*
X151014902Y-102235321D01*
X150959905Y-102453579D01*
X150959904Y-102453586D01*
X150949500Y-102585777D01*
X147182225Y-102585777D01*
X146579409Y-101982962D01*
X146642993Y-101965925D01*
X146757007Y-101900099D01*
X146850099Y-101807007D01*
X146915925Y-101692993D01*
X146932962Y-101629410D01*
X147601066Y-102297514D01*
X147601066Y-102297513D01*
X147647386Y-102233760D01*
X147747432Y-102037410D01*
X147815526Y-101827835D01*
X147850000Y-101610181D01*
X147850000Y-101389818D01*
X147815526Y-101172164D01*
X147747432Y-100962589D01*
X147647388Y-100766243D01*
X147601066Y-100702485D01*
X147601065Y-100702485D01*
X146932962Y-101370589D01*
X146915925Y-101307007D01*
X146850099Y-101192993D01*
X146757007Y-101099901D01*
X146642993Y-101034075D01*
X146579407Y-101017037D01*
X147247513Y-100348932D01*
X147247396Y-100347450D01*
X147207181Y-100295299D01*
X147201200Y-100225686D01*
X147233805Y-100163890D01*
X147249842Y-100149993D01*
X147362365Y-100068242D01*
X147518242Y-99912365D01*
X147647815Y-99734022D01*
X147747895Y-99537606D01*
X147816015Y-99327951D01*
X147850500Y-99110222D01*
X147850500Y-98889778D01*
X147816015Y-98672049D01*
X147747895Y-98462394D01*
X147747895Y-98462393D01*
X147699711Y-98367829D01*
X147647815Y-98265978D01*
X147630611Y-98242299D01*
X147518247Y-98087641D01*
X147518243Y-98087636D01*
X147497205Y-98066598D01*
X147463720Y-98005275D01*
X147468704Y-97935583D01*
X147510576Y-97879650D01*
X147541554Y-97862735D01*
X147592326Y-97843798D01*
X147592326Y-97843797D01*
X147592331Y-97843796D01*
X147707546Y-97757546D01*
X147793796Y-97642331D01*
X147844091Y-97507483D01*
X147850500Y-97447873D01*
X147850499Y-95552128D01*
X147844091Y-95492517D01*
X147840132Y-95481903D01*
X147793797Y-95357671D01*
X147793793Y-95357664D01*
X147707547Y-95242455D01*
X147707544Y-95242452D01*
X147592335Y-95156206D01*
X147592328Y-95156202D01*
X147457482Y-95105908D01*
X147457483Y-95105908D01*
X147397883Y-95099501D01*
X147397881Y-95099500D01*
X147397873Y-95099500D01*
X147397864Y-95099500D01*
X145502129Y-95099500D01*
X145502123Y-95099501D01*
X145442516Y-95105908D01*
X145307671Y-95156202D01*
X145307664Y-95156206D01*
X145192455Y-95242452D01*
X145192452Y-95242455D01*
X145106206Y-95357664D01*
X145106202Y-95357671D01*
X145055908Y-95492517D01*
X145049501Y-95552116D01*
X145049501Y-95552123D01*
X145049500Y-95552135D01*
X131159817Y-95552135D01*
X131092780Y-95345815D01*
X130978442Y-95121416D01*
X130904250Y-95019301D01*
X130904250Y-95019300D01*
X130287577Y-95635973D01*
X130274641Y-95604742D01*
X130192563Y-95481903D01*
X130088097Y-95377437D01*
X129965258Y-95295359D01*
X129934024Y-95282421D01*
X130550698Y-94665748D01*
X130448583Y-94591557D01*
X130224184Y-94477219D01*
X129984669Y-94399397D01*
X129735928Y-94360000D01*
X129484072Y-94360000D01*
X129235330Y-94399397D01*
X128995815Y-94477219D01*
X128771413Y-94591559D01*
X128669301Y-94665747D01*
X128669300Y-94665748D01*
X129285974Y-95282421D01*
X129254742Y-95295359D01*
X129131903Y-95377437D01*
X129027437Y-95481903D01*
X128945359Y-95604742D01*
X128932421Y-95635974D01*
X128315748Y-95019300D01*
X128315747Y-95019301D01*
X128241559Y-95121413D01*
X128127219Y-95345815D01*
X128049397Y-95585330D01*
X128010000Y-95834071D01*
X128010000Y-96085928D01*
X128049397Y-96334669D01*
X128127219Y-96574184D01*
X128241557Y-96798583D01*
X128315748Y-96900697D01*
X128315748Y-96900698D01*
X128932421Y-96284024D01*
X128945359Y-96315258D01*
X129027437Y-96438097D01*
X129131903Y-96542563D01*
X129254742Y-96624641D01*
X129285974Y-96637577D01*
X128669300Y-97254250D01*
X128671598Y-97283449D01*
X128657233Y-97351827D01*
X128608181Y-97401583D01*
X128540016Y-97416921D01*
X128528583Y-97415650D01*
X128426611Y-97399500D01*
X128253389Y-97399500D01*
X128213728Y-97405781D01*
X128082302Y-97426597D01*
X127917552Y-97480128D01*
X127763211Y-97558768D01*
X127707115Y-97599525D01*
X127623072Y-97660586D01*
X127623070Y-97660588D01*
X127623069Y-97660588D01*
X127500588Y-97783069D01*
X127500588Y-97783070D01*
X127500586Y-97783072D01*
X127456859Y-97843256D01*
X127398768Y-97923211D01*
X127320128Y-98077552D01*
X127266597Y-98242302D01*
X127239500Y-98413389D01*
X117600500Y-98413389D01*
X117573402Y-98242299D01*
X117519873Y-98077555D01*
X117441232Y-97923212D01*
X117339414Y-97783072D01*
X117216928Y-97660586D01*
X117076788Y-97558768D01*
X116922445Y-97480127D01*
X116757701Y-97426598D01*
X116757699Y-97426597D01*
X116757698Y-97426597D01*
X116626271Y-97405781D01*
X116586611Y-97399500D01*
X116413389Y-97399500D01*
X116373728Y-97405781D01*
X116242302Y-97426597D01*
X116077552Y-97480128D01*
X115923211Y-97558768D01*
X115867115Y-97599525D01*
X115783072Y-97660586D01*
X115783070Y-97660588D01*
X115783069Y-97660588D01*
X115660588Y-97783069D01*
X115660588Y-97783070D01*
X115660586Y-97783072D01*
X115616859Y-97843256D01*
X115558768Y-97923211D01*
X115480128Y-98077552D01*
X115426597Y-98242302D01*
X115399500Y-98413389D01*
X113670500Y-98413389D01*
X113670500Y-98352494D01*
X113631993Y-98060007D01*
X113555639Y-97775048D01*
X113548389Y-97757546D01*
X113500666Y-97642331D01*
X113442743Y-97502493D01*
X113392604Y-97415650D01*
X113295238Y-97247006D01*
X113115647Y-97012959D01*
X113115641Y-97012952D01*
X112907047Y-96804358D01*
X112907040Y-96804352D01*
X112672993Y-96624761D01*
X112417510Y-96477258D01*
X112417500Y-96477254D01*
X112144961Y-96364364D01*
X112144954Y-96364362D01*
X112144952Y-96364361D01*
X111859993Y-96288007D01*
X111811113Y-96281571D01*
X111567513Y-96249500D01*
X111567506Y-96249500D01*
X111272494Y-96249500D01*
X111272486Y-96249500D01*
X110994085Y-96286153D01*
X110980007Y-96288007D01*
X110805861Y-96334669D01*
X110695048Y-96364361D01*
X110695038Y-96364364D01*
X110422499Y-96477254D01*
X110422489Y-96477258D01*
X110167006Y-96624761D01*
X109932959Y-96804352D01*
X109932952Y-96804358D01*
X109724358Y-97012952D01*
X109724352Y-97012959D01*
X109544761Y-97247006D01*
X109397258Y-97502489D01*
X109397254Y-97502499D01*
X109284364Y-97775038D01*
X109284361Y-97775048D01*
X109232106Y-97970070D01*
X109208008Y-98060004D01*
X109208006Y-98060015D01*
X109169500Y-98352486D01*
X107430854Y-98352486D01*
X107413402Y-98242299D01*
X107359873Y-98077555D01*
X107281232Y-97923212D01*
X107179414Y-97783072D01*
X107126882Y-97730540D01*
X107093397Y-97669217D01*
X107098381Y-97599525D01*
X107140253Y-97543592D01*
X107205717Y-97519175D01*
X107233961Y-97520386D01*
X107484072Y-97560000D01*
X107735928Y-97560000D01*
X107984669Y-97520602D01*
X108224184Y-97442780D01*
X108448575Y-97328446D01*
X108448581Y-97328442D01*
X108550697Y-97254250D01*
X108550698Y-97254250D01*
X107934025Y-96637578D01*
X107965258Y-96624641D01*
X108088097Y-96542563D01*
X108192563Y-96438097D01*
X108274641Y-96315258D01*
X108287577Y-96284025D01*
X108904250Y-96900698D01*
X108904250Y-96900697D01*
X108978442Y-96798581D01*
X108978446Y-96798575D01*
X109092780Y-96574184D01*
X109170602Y-96334669D01*
X109210000Y-96085928D01*
X109210000Y-95834071D01*
X109170602Y-95585330D01*
X109092780Y-95345815D01*
X108978442Y-95121416D01*
X108904250Y-95019301D01*
X108904250Y-95019300D01*
X108287577Y-95635973D01*
X108274641Y-95604742D01*
X108192563Y-95481903D01*
X108088097Y-95377437D01*
X107965258Y-95295359D01*
X107934024Y-95282421D01*
X108550698Y-94665748D01*
X108448583Y-94591557D01*
X108224184Y-94477219D01*
X107984669Y-94399397D01*
X107735928Y-94360000D01*
X107484072Y-94360000D01*
X107235330Y-94399397D01*
X106995815Y-94477219D01*
X106771413Y-94591559D01*
X106669301Y-94665747D01*
X106669300Y-94665748D01*
X107285974Y-95282421D01*
X107254742Y-95295359D01*
X107131903Y-95377437D01*
X107027437Y-95481903D01*
X106945359Y-95604742D01*
X106932421Y-95635974D01*
X106315748Y-95019300D01*
X106315747Y-95019301D01*
X106241559Y-95121413D01*
X106127219Y-95345815D01*
X106049397Y-95585330D01*
X106010000Y-95834071D01*
X106010000Y-96085928D01*
X106049397Y-96334669D01*
X106127219Y-96574184D01*
X106241557Y-96798583D01*
X106315748Y-96900697D01*
X106315748Y-96900698D01*
X106932421Y-96284024D01*
X106945359Y-96315258D01*
X107027437Y-96438097D01*
X107131903Y-96542563D01*
X107254742Y-96624641D01*
X107285974Y-96637577D01*
X106669300Y-97254250D01*
X106671598Y-97283449D01*
X106657233Y-97351827D01*
X106608181Y-97401583D01*
X106540016Y-97416921D01*
X106528583Y-97415650D01*
X106426611Y-97399500D01*
X106253389Y-97399500D01*
X106213728Y-97405781D01*
X106082302Y-97426597D01*
X105917552Y-97480128D01*
X105763211Y-97558768D01*
X105707115Y-97599525D01*
X105623072Y-97660586D01*
X105623070Y-97660588D01*
X105623069Y-97660588D01*
X105500588Y-97783069D01*
X105500588Y-97783070D01*
X105500586Y-97783072D01*
X105456859Y-97843256D01*
X105398768Y-97923211D01*
X105320128Y-98077552D01*
X105266597Y-98242302D01*
X105239500Y-98413389D01*
X94600500Y-98413389D01*
X94573402Y-98242299D01*
X94519873Y-98077555D01*
X94441232Y-97923212D01*
X94339414Y-97783072D01*
X94216928Y-97660586D01*
X94076788Y-97558768D01*
X93922445Y-97480127D01*
X93757701Y-97426598D01*
X93757699Y-97426597D01*
X93757698Y-97426597D01*
X93626271Y-97405781D01*
X93586611Y-97399500D01*
X93413389Y-97399500D01*
X93373728Y-97405781D01*
X93242302Y-97426597D01*
X93077552Y-97480128D01*
X92923211Y-97558768D01*
X92867115Y-97599525D01*
X92783072Y-97660586D01*
X92783070Y-97660588D01*
X92783069Y-97660588D01*
X92660588Y-97783069D01*
X92660588Y-97783070D01*
X92660586Y-97783072D01*
X92616859Y-97843256D01*
X92558768Y-97923211D01*
X92480128Y-98077552D01*
X92426597Y-98242302D01*
X92399500Y-98413389D01*
X90670500Y-98413389D01*
X90670500Y-98352494D01*
X90631993Y-98060007D01*
X90555639Y-97775048D01*
X90548389Y-97757546D01*
X90500666Y-97642331D01*
X90442743Y-97502493D01*
X90392604Y-97415650D01*
X90295238Y-97247006D01*
X90115647Y-97012959D01*
X90115641Y-97012952D01*
X89907047Y-96804358D01*
X89907040Y-96804352D01*
X89672993Y-96624761D01*
X89417510Y-96477258D01*
X89417500Y-96477254D01*
X89144961Y-96364364D01*
X89144954Y-96364362D01*
X89144952Y-96364361D01*
X88859993Y-96288007D01*
X88811113Y-96281571D01*
X88567513Y-96249500D01*
X88567506Y-96249500D01*
X88272494Y-96249500D01*
X88272486Y-96249500D01*
X87994085Y-96286153D01*
X87980007Y-96288007D01*
X87805861Y-96334669D01*
X87695048Y-96364361D01*
X87695038Y-96364364D01*
X87422499Y-96477254D01*
X87422489Y-96477258D01*
X87167006Y-96624761D01*
X86932959Y-96804352D01*
X86932952Y-96804358D01*
X86724358Y-97012952D01*
X86724352Y-97012959D01*
X86544761Y-97247006D01*
X86397258Y-97502489D01*
X86397254Y-97502499D01*
X86284364Y-97775038D01*
X86284361Y-97775048D01*
X86232106Y-97970070D01*
X86208008Y-98060004D01*
X86208006Y-98060015D01*
X86169500Y-98352486D01*
X84430854Y-98352486D01*
X84413402Y-98242299D01*
X84359873Y-98077555D01*
X84281232Y-97923212D01*
X84179414Y-97783072D01*
X84126882Y-97730540D01*
X84093397Y-97669217D01*
X84098381Y-97599525D01*
X84140253Y-97543592D01*
X84205717Y-97519175D01*
X84233961Y-97520386D01*
X84484072Y-97560000D01*
X84735928Y-97560000D01*
X84984669Y-97520602D01*
X85224184Y-97442780D01*
X85448575Y-97328446D01*
X85448581Y-97328442D01*
X85550697Y-97254250D01*
X85550698Y-97254250D01*
X84934025Y-96637578D01*
X84965258Y-96624641D01*
X85088097Y-96542563D01*
X85192563Y-96438097D01*
X85274641Y-96315258D01*
X85287577Y-96284025D01*
X85904250Y-96900698D01*
X85904250Y-96900697D01*
X85978442Y-96798581D01*
X85978446Y-96798575D01*
X86092780Y-96574184D01*
X86170602Y-96334669D01*
X86210000Y-96085928D01*
X86210000Y-95834071D01*
X86170602Y-95585330D01*
X86092780Y-95345815D01*
X85978442Y-95121416D01*
X85904250Y-95019301D01*
X85904250Y-95019300D01*
X85287577Y-95635973D01*
X85274641Y-95604742D01*
X85192563Y-95481903D01*
X85088097Y-95377437D01*
X84965258Y-95295359D01*
X84934024Y-95282421D01*
X85550698Y-94665748D01*
X85448583Y-94591557D01*
X85224184Y-94477219D01*
X84984669Y-94399397D01*
X84735928Y-94360000D01*
X84484072Y-94360000D01*
X84235330Y-94399397D01*
X83995815Y-94477219D01*
X83771413Y-94591559D01*
X83669301Y-94665747D01*
X83669300Y-94665748D01*
X84285974Y-95282421D01*
X84254742Y-95295359D01*
X84131903Y-95377437D01*
X84027437Y-95481903D01*
X83945359Y-95604742D01*
X83932421Y-95635974D01*
X83315748Y-95019300D01*
X83315747Y-95019301D01*
X83241559Y-95121413D01*
X83127219Y-95345815D01*
X83049397Y-95585330D01*
X83010000Y-95834071D01*
X83010000Y-96085928D01*
X83049397Y-96334669D01*
X83127219Y-96574184D01*
X83241557Y-96798583D01*
X83315748Y-96900697D01*
X83315748Y-96900698D01*
X83932421Y-96284024D01*
X83945359Y-96315258D01*
X84027437Y-96438097D01*
X84131903Y-96542563D01*
X84254742Y-96624641D01*
X84285974Y-96637577D01*
X83669300Y-97254250D01*
X83671598Y-97283449D01*
X83657233Y-97351827D01*
X83608181Y-97401583D01*
X83540016Y-97416921D01*
X83528583Y-97415650D01*
X83426611Y-97399500D01*
X83253389Y-97399500D01*
X83213728Y-97405781D01*
X83082302Y-97426597D01*
X82917552Y-97480128D01*
X82763211Y-97558768D01*
X82707115Y-97599525D01*
X82623072Y-97660586D01*
X82623070Y-97660588D01*
X82623069Y-97660588D01*
X82500588Y-97783069D01*
X82500588Y-97783070D01*
X82500586Y-97783072D01*
X82456859Y-97843256D01*
X82398768Y-97923211D01*
X82320128Y-98077552D01*
X82266597Y-98242302D01*
X82239500Y-98413389D01*
X68500500Y-98413389D01*
X68500500Y-93294038D01*
X89359500Y-93294038D01*
X89359500Y-93545962D01*
X89394026Y-93763950D01*
X89398910Y-93794785D01*
X89476760Y-94034383D01*
X89591132Y-94258848D01*
X89739201Y-94462649D01*
X89739205Y-94462654D01*
X89917345Y-94640794D01*
X89917350Y-94640798D01*
X90095117Y-94769952D01*
X90121155Y-94788870D01*
X90264184Y-94861747D01*
X90345616Y-94903239D01*
X90345618Y-94903239D01*
X90345621Y-94903241D01*
X90585215Y-94981090D01*
X90834038Y-95020500D01*
X90834039Y-95020500D01*
X91085961Y-95020500D01*
X91085962Y-95020500D01*
X91334785Y-94981090D01*
X91574379Y-94903241D01*
X91798845Y-94788870D01*
X92002656Y-94640793D01*
X92180793Y-94462656D01*
X92328870Y-94258845D01*
X92443241Y-94034379D01*
X92521090Y-93794785D01*
X92560500Y-93545962D01*
X92560500Y-93294038D01*
X112359500Y-93294038D01*
X112359500Y-93545962D01*
X112394026Y-93763950D01*
X112398910Y-93794785D01*
X112476760Y-94034383D01*
X112591132Y-94258848D01*
X112739201Y-94462649D01*
X112739205Y-94462654D01*
X112917345Y-94640794D01*
X112917350Y-94640798D01*
X113095117Y-94769952D01*
X113121155Y-94788870D01*
X113264184Y-94861747D01*
X113345616Y-94903239D01*
X113345618Y-94903239D01*
X113345621Y-94903241D01*
X113585215Y-94981090D01*
X113834038Y-95020500D01*
X113834039Y-95020500D01*
X114085961Y-95020500D01*
X114085962Y-95020500D01*
X114334785Y-94981090D01*
X114574379Y-94903241D01*
X114798845Y-94788870D01*
X115002656Y-94640793D01*
X115180793Y-94462656D01*
X115328870Y-94258845D01*
X115443241Y-94034379D01*
X115521090Y-93794785D01*
X115560500Y-93545962D01*
X115560500Y-93294038D01*
X134359500Y-93294038D01*
X134359500Y-93545962D01*
X134394026Y-93763950D01*
X134398910Y-93794785D01*
X134476760Y-94034383D01*
X134591132Y-94258848D01*
X134739201Y-94462649D01*
X134739205Y-94462654D01*
X134917345Y-94640794D01*
X134917350Y-94640798D01*
X135095117Y-94769952D01*
X135121155Y-94788870D01*
X135264184Y-94861747D01*
X135345616Y-94903239D01*
X135345618Y-94903239D01*
X135345621Y-94903241D01*
X135585215Y-94981090D01*
X135834038Y-95020500D01*
X135834039Y-95020500D01*
X136085961Y-95020500D01*
X136085962Y-95020500D01*
X136334785Y-94981090D01*
X136574379Y-94903241D01*
X136798845Y-94788870D01*
X137002656Y-94640793D01*
X137180793Y-94462656D01*
X137328870Y-94258845D01*
X137443241Y-94034379D01*
X137521090Y-93794785D01*
X137522517Y-93785777D01*
X150949500Y-93785777D01*
X150949500Y-95414208D01*
X150949501Y-95414223D01*
X150959904Y-95546413D01*
X150959905Y-95546420D01*
X151014902Y-95764678D01*
X151014903Y-95764681D01*
X151107991Y-95969622D01*
X151107997Y-95969632D01*
X151236174Y-96154645D01*
X151236178Y-96154650D01*
X151236181Y-96154654D01*
X151395346Y-96313819D01*
X151395350Y-96313822D01*
X151395354Y-96313825D01*
X151425441Y-96334669D01*
X151580374Y-96442007D01*
X151785317Y-96535096D01*
X151785321Y-96535097D01*
X152003579Y-96590094D01*
X152003581Y-96590094D01*
X152003588Y-96590096D01*
X152135783Y-96600500D01*
X154764216Y-96600499D01*
X154896412Y-96590096D01*
X155114683Y-96535096D01*
X155319626Y-96442007D01*
X155504654Y-96313819D01*
X155663819Y-96154654D01*
X155792007Y-95969626D01*
X155885096Y-95764683D01*
X155940096Y-95546412D01*
X155950500Y-95414217D01*
X155950499Y-93785784D01*
X155940096Y-93653588D01*
X155885096Y-93435317D01*
X155792007Y-93230374D01*
X155663819Y-93045346D01*
X155504654Y-92886181D01*
X155504650Y-92886178D01*
X155504645Y-92886174D01*
X155319632Y-92757997D01*
X155319630Y-92757995D01*
X155319626Y-92757993D01*
X155114683Y-92664904D01*
X155114681Y-92664903D01*
X155114678Y-92664902D01*
X154896420Y-92609905D01*
X154896413Y-92609904D01*
X154852347Y-92606436D01*
X154764217Y-92599500D01*
X154764215Y-92599500D01*
X152135791Y-92599500D01*
X152135776Y-92599501D01*
X152003586Y-92609904D01*
X152003579Y-92609905D01*
X151785321Y-92664902D01*
X151785318Y-92664903D01*
X151580377Y-92757991D01*
X151580367Y-92757997D01*
X151395354Y-92886174D01*
X151395342Y-92886184D01*
X151236184Y-93045342D01*
X151236174Y-93045354D01*
X151107997Y-93230367D01*
X151107991Y-93230377D01*
X151014903Y-93435318D01*
X151014902Y-93435321D01*
X150959905Y-93653579D01*
X150959904Y-93653586D01*
X150949500Y-93785777D01*
X137522517Y-93785777D01*
X137560500Y-93545962D01*
X137560500Y-93294038D01*
X137521090Y-93045215D01*
X137443241Y-92805621D01*
X137443239Y-92805618D01*
X137443239Y-92805616D01*
X137371542Y-92664904D01*
X137328870Y-92581155D01*
X137309952Y-92555117D01*
X137180798Y-92377350D01*
X137180794Y-92377345D01*
X137002654Y-92199205D01*
X137002649Y-92199201D01*
X136798848Y-92051132D01*
X136798847Y-92051131D01*
X136798845Y-92051130D01*
X136728747Y-92015413D01*
X136574383Y-91936760D01*
X136334785Y-91858910D01*
X136085962Y-91819500D01*
X135834038Y-91819500D01*
X135709626Y-91839205D01*
X135585214Y-91858910D01*
X135345616Y-91936760D01*
X135121151Y-92051132D01*
X134917350Y-92199201D01*
X134917345Y-92199205D01*
X134739205Y-92377345D01*
X134739201Y-92377350D01*
X134591132Y-92581151D01*
X134476760Y-92805616D01*
X134450583Y-92886181D01*
X134398910Y-93045215D01*
X134359500Y-93294038D01*
X115560500Y-93294038D01*
X115521090Y-93045215D01*
X115443241Y-92805621D01*
X115443239Y-92805618D01*
X115443239Y-92805616D01*
X115371542Y-92664904D01*
X115328870Y-92581155D01*
X115309952Y-92555117D01*
X115180798Y-92377350D01*
X115180794Y-92377345D01*
X115002654Y-92199205D01*
X115002649Y-92199201D01*
X114798848Y-92051132D01*
X114798847Y-92051131D01*
X114798845Y-92051130D01*
X114728747Y-92015413D01*
X114574383Y-91936760D01*
X114334785Y-91858910D01*
X114085962Y-91819500D01*
X113834038Y-91819500D01*
X113709626Y-91839205D01*
X113585214Y-91858910D01*
X113345616Y-91936760D01*
X113121151Y-92051132D01*
X112917350Y-92199201D01*
X112917345Y-92199205D01*
X112739205Y-92377345D01*
X112739201Y-92377350D01*
X112591132Y-92581151D01*
X112476760Y-92805616D01*
X112450583Y-92886181D01*
X112398910Y-93045215D01*
X112359500Y-93294038D01*
X92560500Y-93294038D01*
X92521090Y-93045215D01*
X92443241Y-92805621D01*
X92443239Y-92805618D01*
X92443239Y-92805616D01*
X92371542Y-92664904D01*
X92328870Y-92581155D01*
X92309952Y-92555117D01*
X92180798Y-92377350D01*
X92180794Y-92377345D01*
X92002654Y-92199205D01*
X92002649Y-92199201D01*
X91798848Y-92051132D01*
X91798847Y-92051131D01*
X91798845Y-92051130D01*
X91728747Y-92015413D01*
X91574383Y-91936760D01*
X91334785Y-91858910D01*
X91085962Y-91819500D01*
X90834038Y-91819500D01*
X90709626Y-91839205D01*
X90585214Y-91858910D01*
X90345616Y-91936760D01*
X90121151Y-92051132D01*
X89917350Y-92199201D01*
X89917345Y-92199205D01*
X89739205Y-92377345D01*
X89739201Y-92377350D01*
X89591132Y-92581151D01*
X89476760Y-92805616D01*
X89450583Y-92886181D01*
X89398910Y-93045215D01*
X89359500Y-93294038D01*
X68500500Y-93294038D01*
X68500500Y-69065639D01*
X75237500Y-69065639D01*
X75237500Y-69264360D01*
X75268587Y-69460637D01*
X75329993Y-69649629D01*
X75329994Y-69649632D01*
X75368371Y-69724949D01*
X75420213Y-69826694D01*
X75537019Y-69987464D01*
X75677536Y-70127981D01*
X75838306Y-70244787D01*
X75925149Y-70289035D01*
X76015367Y-70335005D01*
X76015370Y-70335006D01*
X76097183Y-70361588D01*
X76204364Y-70396413D01*
X76400639Y-70427500D01*
X76400640Y-70427500D01*
X76599360Y-70427500D01*
X76599361Y-70427500D01*
X76795636Y-70396413D01*
X76984632Y-70335005D01*
X77161694Y-70244787D01*
X77322464Y-70127981D01*
X77462981Y-69987464D01*
X77579787Y-69826694D01*
X77659515Y-69670218D01*
X77707490Y-69619423D01*
X77775311Y-69602628D01*
X77841446Y-69625165D01*
X77880484Y-69670218D01*
X77960213Y-69826694D01*
X78077019Y-69987464D01*
X78217536Y-70127981D01*
X78378306Y-70244787D01*
X78465149Y-70289035D01*
X78555367Y-70335005D01*
X78555370Y-70335006D01*
X78637183Y-70361588D01*
X78744364Y-70396413D01*
X78940639Y-70427500D01*
X78940640Y-70427500D01*
X79139360Y-70427500D01*
X79139361Y-70427500D01*
X79335636Y-70396413D01*
X79524632Y-70335005D01*
X79701694Y-70244787D01*
X79862464Y-70127981D01*
X80002981Y-69987464D01*
X80119787Y-69826694D01*
X80199515Y-69670218D01*
X80247490Y-69619423D01*
X80315311Y-69602628D01*
X80381446Y-69625165D01*
X80420484Y-69670218D01*
X80500213Y-69826694D01*
X80617019Y-69987464D01*
X80757536Y-70127981D01*
X80918306Y-70244787D01*
X81005149Y-70289035D01*
X81095367Y-70335005D01*
X81095370Y-70335006D01*
X81177183Y-70361588D01*
X81284364Y-70396413D01*
X81480639Y-70427500D01*
X81480640Y-70427500D01*
X81679360Y-70427500D01*
X81679361Y-70427500D01*
X81875636Y-70396413D01*
X82064632Y-70335005D01*
X82241694Y-70244787D01*
X82402464Y-70127981D01*
X82542981Y-69987464D01*
X82659787Y-69826694D01*
X82739515Y-69670218D01*
X82787490Y-69619423D01*
X82855311Y-69602628D01*
X82921446Y-69625165D01*
X82960484Y-69670218D01*
X83040213Y-69826694D01*
X83157019Y-69987464D01*
X83297536Y-70127981D01*
X83458306Y-70244787D01*
X83545149Y-70289035D01*
X83635367Y-70335005D01*
X83635370Y-70335006D01*
X83717183Y-70361588D01*
X83824364Y-70396413D01*
X84020639Y-70427500D01*
X84020640Y-70427500D01*
X84219360Y-70427500D01*
X84219361Y-70427500D01*
X84415636Y-70396413D01*
X84604632Y-70335005D01*
X84781694Y-70244787D01*
X84942464Y-70127981D01*
X85082981Y-69987464D01*
X85199787Y-69826694D01*
X85279515Y-69670218D01*
X85327490Y-69619423D01*
X85395311Y-69602628D01*
X85461446Y-69625165D01*
X85500484Y-69670218D01*
X85580213Y-69826694D01*
X85697019Y-69987464D01*
X85837536Y-70127981D01*
X85998306Y-70244787D01*
X86085149Y-70289035D01*
X86175367Y-70335005D01*
X86175370Y-70335006D01*
X86257183Y-70361588D01*
X86364364Y-70396413D01*
X86560639Y-70427500D01*
X86560640Y-70427500D01*
X86759360Y-70427500D01*
X86759361Y-70427500D01*
X86955636Y-70396413D01*
X87144632Y-70335005D01*
X87321694Y-70244787D01*
X87482464Y-70127981D01*
X87622981Y-69987464D01*
X87739787Y-69826694D01*
X87819515Y-69670218D01*
X87867490Y-69619423D01*
X87935311Y-69602628D01*
X88001446Y-69625165D01*
X88040484Y-69670218D01*
X88120213Y-69826694D01*
X88237019Y-69987464D01*
X88377536Y-70127981D01*
X88538306Y-70244787D01*
X88625149Y-70289035D01*
X88715367Y-70335005D01*
X88715370Y-70335006D01*
X88797183Y-70361588D01*
X88904364Y-70396413D01*
X89100639Y-70427500D01*
X89100640Y-70427500D01*
X89299360Y-70427500D01*
X89299361Y-70427500D01*
X89495636Y-70396413D01*
X89684632Y-70335005D01*
X89861694Y-70244787D01*
X90022464Y-70127981D01*
X90162981Y-69987464D01*
X90279787Y-69826694D01*
X90359515Y-69670218D01*
X90407490Y-69619423D01*
X90475311Y-69602628D01*
X90541446Y-69625165D01*
X90580484Y-69670218D01*
X90660213Y-69826694D01*
X90777019Y-69987464D01*
X90917536Y-70127981D01*
X91078306Y-70244787D01*
X91165149Y-70289035D01*
X91255367Y-70335005D01*
X91255370Y-70335006D01*
X91337183Y-70361588D01*
X91444364Y-70396413D01*
X91640639Y-70427500D01*
X91640640Y-70427500D01*
X91839360Y-70427500D01*
X91839361Y-70427500D01*
X92035636Y-70396413D01*
X92224632Y-70335005D01*
X92401694Y-70244787D01*
X92562464Y-70127981D01*
X92702981Y-69987464D01*
X92819787Y-69826694D01*
X92910005Y-69649632D01*
X92971413Y-69460636D01*
X93002500Y-69264361D01*
X93002500Y-69065639D01*
X92971413Y-68869364D01*
X92910005Y-68680368D01*
X92910005Y-68680367D01*
X92819786Y-68503305D01*
X92778360Y-68446287D01*
X92702981Y-68342536D01*
X92562464Y-68202019D01*
X92401694Y-68085213D01*
X92224632Y-67994994D01*
X92224629Y-67994993D01*
X92035637Y-67933587D01*
X91937498Y-67918043D01*
X91839361Y-67902500D01*
X91640639Y-67902500D01*
X91575214Y-67912862D01*
X91444362Y-67933587D01*
X91255370Y-67994993D01*
X91255367Y-67994994D01*
X91078305Y-68085213D01*
X90917533Y-68202021D01*
X90777021Y-68342533D01*
X90660213Y-68503305D01*
X90580485Y-68659780D01*
X90532510Y-68710576D01*
X90464689Y-68727371D01*
X90398554Y-68704833D01*
X90359515Y-68659780D01*
X90279786Y-68503305D01*
X90238360Y-68446287D01*
X90162981Y-68342536D01*
X90022464Y-68202019D01*
X89861694Y-68085213D01*
X89684632Y-67994994D01*
X89684629Y-67994993D01*
X89495637Y-67933587D01*
X89397498Y-67918043D01*
X89299361Y-67902500D01*
X89100639Y-67902500D01*
X89035214Y-67912862D01*
X88904362Y-67933587D01*
X88715370Y-67994993D01*
X88715367Y-67994994D01*
X88538305Y-68085213D01*
X88377533Y-68202021D01*
X88237021Y-68342533D01*
X88120213Y-68503305D01*
X88040485Y-68659780D01*
X87992510Y-68710576D01*
X87924689Y-68727371D01*
X87858554Y-68704833D01*
X87819515Y-68659780D01*
X87739786Y-68503305D01*
X87698360Y-68446287D01*
X87622981Y-68342536D01*
X87482464Y-68202019D01*
X87321694Y-68085213D01*
X87144632Y-67994994D01*
X87144629Y-67994993D01*
X86955637Y-67933587D01*
X86857498Y-67918043D01*
X86759361Y-67902500D01*
X86560639Y-67902500D01*
X86495214Y-67912862D01*
X86364362Y-67933587D01*
X86175370Y-67994993D01*
X86175367Y-67994994D01*
X85998305Y-68085213D01*
X85837533Y-68202021D01*
X85697021Y-68342533D01*
X85580213Y-68503305D01*
X85500485Y-68659780D01*
X85452510Y-68710576D01*
X85384689Y-68727371D01*
X85318554Y-68704833D01*
X85279515Y-68659780D01*
X85199786Y-68503305D01*
X85158360Y-68446287D01*
X85082981Y-68342536D01*
X84942464Y-68202019D01*
X84781694Y-68085213D01*
X84604632Y-67994994D01*
X84604629Y-67994993D01*
X84415637Y-67933587D01*
X84317498Y-67918043D01*
X84219361Y-67902500D01*
X84020639Y-67902500D01*
X83955214Y-67912862D01*
X83824362Y-67933587D01*
X83635370Y-67994993D01*
X83635367Y-67994994D01*
X83458305Y-68085213D01*
X83297533Y-68202021D01*
X83157021Y-68342533D01*
X83040213Y-68503305D01*
X82960485Y-68659780D01*
X82912510Y-68710576D01*
X82844689Y-68727371D01*
X82778554Y-68704833D01*
X82739515Y-68659780D01*
X82659786Y-68503305D01*
X82618360Y-68446287D01*
X82542981Y-68342536D01*
X82402464Y-68202019D01*
X82241694Y-68085213D01*
X82064632Y-67994994D01*
X82064629Y-67994993D01*
X81875637Y-67933587D01*
X81777498Y-67918043D01*
X81679361Y-67902500D01*
X81480639Y-67902500D01*
X81415214Y-67912862D01*
X81284362Y-67933587D01*
X81095370Y-67994993D01*
X81095367Y-67994994D01*
X80918305Y-68085213D01*
X80757533Y-68202021D01*
X80617021Y-68342533D01*
X80500213Y-68503305D01*
X80420485Y-68659780D01*
X80372510Y-68710576D01*
X80304689Y-68727371D01*
X80238554Y-68704833D01*
X80199515Y-68659780D01*
X80119786Y-68503305D01*
X80078360Y-68446287D01*
X80002981Y-68342536D01*
X79862464Y-68202019D01*
X79701694Y-68085213D01*
X79524632Y-67994994D01*
X79524629Y-67994993D01*
X79335637Y-67933587D01*
X79237498Y-67918043D01*
X79139361Y-67902500D01*
X78940639Y-67902500D01*
X78875214Y-67912862D01*
X78744362Y-67933587D01*
X78555370Y-67994993D01*
X78555367Y-67994994D01*
X78378305Y-68085213D01*
X78217533Y-68202021D01*
X78077021Y-68342533D01*
X77960213Y-68503305D01*
X77880485Y-68659780D01*
X77832510Y-68710576D01*
X77764689Y-68727371D01*
X77698554Y-68704833D01*
X77659515Y-68659780D01*
X77579786Y-68503305D01*
X77538360Y-68446287D01*
X77462981Y-68342536D01*
X77322464Y-68202019D01*
X77161694Y-68085213D01*
X76984632Y-67994994D01*
X76984629Y-67994993D01*
X76795637Y-67933587D01*
X76697498Y-67918043D01*
X76599361Y-67902500D01*
X76400639Y-67902500D01*
X76335214Y-67912862D01*
X76204362Y-67933587D01*
X76015370Y-67994993D01*
X76015367Y-67994994D01*
X75838305Y-68085213D01*
X75677533Y-68202021D01*
X75537021Y-68342533D01*
X75420213Y-68503305D01*
X75329994Y-68680367D01*
X75329993Y-68680370D01*
X75268587Y-68869362D01*
X75237500Y-69065639D01*
X68500500Y-69065639D01*
X68500500Y-60613713D01*
X103649500Y-60613713D01*
X103649500Y-60826286D01*
X103682753Y-61036239D01*
X103748444Y-61238414D01*
X103844951Y-61427820D01*
X103969890Y-61599786D01*
X104120213Y-61750109D01*
X104292182Y-61875050D01*
X104300946Y-61879516D01*
X104351742Y-61927491D01*
X104368536Y-61995312D01*
X104345998Y-62061447D01*
X104300946Y-62100484D01*
X104292182Y-62104949D01*
X104120213Y-62229890D01*
X103969890Y-62380213D01*
X103844951Y-62552179D01*
X103748444Y-62741585D01*
X103682753Y-62943760D01*
X103649500Y-63153713D01*
X103649500Y-63366286D01*
X103682753Y-63576239D01*
X103748444Y-63778414D01*
X103844951Y-63967820D01*
X103969890Y-64139786D01*
X104120213Y-64290109D01*
X104292182Y-64415050D01*
X104300946Y-64419516D01*
X104351742Y-64467491D01*
X104368536Y-64535312D01*
X104345998Y-64601447D01*
X104300946Y-64640484D01*
X104292182Y-64644949D01*
X104120213Y-64769890D01*
X103969890Y-64920213D01*
X103844951Y-65092179D01*
X103748444Y-65281585D01*
X103682753Y-65483760D01*
X103649500Y-65693713D01*
X103649500Y-65906286D01*
X103682753Y-66116239D01*
X103748444Y-66318414D01*
X103844951Y-66507820D01*
X103969890Y-66679786D01*
X104120213Y-66830109D01*
X104292182Y-66955050D01*
X104300946Y-66959516D01*
X104351742Y-67007491D01*
X104368536Y-67075312D01*
X104345998Y-67141447D01*
X104300946Y-67180484D01*
X104292182Y-67184949D01*
X104120213Y-67309890D01*
X103969890Y-67460213D01*
X103844951Y-67632179D01*
X103748444Y-67821585D01*
X103682753Y-68023760D01*
X103649500Y-68233713D01*
X103649500Y-68446287D01*
X103682754Y-68656243D01*
X103690593Y-68680370D01*
X103748444Y-68858414D01*
X103844951Y-69047820D01*
X103969890Y-69219786D01*
X104120213Y-69370109D01*
X104292182Y-69495050D01*
X104300946Y-69499516D01*
X104351742Y-69547491D01*
X104368536Y-69615312D01*
X104345998Y-69681447D01*
X104300946Y-69720484D01*
X104292182Y-69724949D01*
X104120213Y-69849890D01*
X103969890Y-70000213D01*
X103844951Y-70172179D01*
X103748444Y-70361585D01*
X103682753Y-70563760D01*
X103649500Y-70773713D01*
X103649500Y-70986286D01*
X103682753Y-71196239D01*
X103748444Y-71398414D01*
X103844951Y-71587820D01*
X103969890Y-71759786D01*
X104120213Y-71910109D01*
X104292182Y-72035050D01*
X104300946Y-72039516D01*
X104351742Y-72087491D01*
X104368536Y-72155312D01*
X104345998Y-72221447D01*
X104300946Y-72260484D01*
X104292182Y-72264949D01*
X104120213Y-72389890D01*
X103969890Y-72540213D01*
X103844951Y-72712179D01*
X103748444Y-72901585D01*
X103682753Y-73103760D01*
X103649500Y-73313713D01*
X103649500Y-73526286D01*
X103682753Y-73736239D01*
X103748444Y-73938414D01*
X103844951Y-74127820D01*
X103969890Y-74299786D01*
X104120213Y-74450109D01*
X104292182Y-74575050D01*
X104300946Y-74579516D01*
X104351742Y-74627491D01*
X104368536Y-74695312D01*
X104345998Y-74761447D01*
X104300946Y-74800484D01*
X104292182Y-74804949D01*
X104120213Y-74929890D01*
X103969890Y-75080213D01*
X103844951Y-75252179D01*
X103748444Y-75441585D01*
X103682753Y-75643760D01*
X103649500Y-75853713D01*
X103649500Y-76066286D01*
X103682753Y-76276239D01*
X103748444Y-76478414D01*
X103844951Y-76667820D01*
X103969890Y-76839786D01*
X104083818Y-76953714D01*
X104117303Y-77015037D01*
X104112319Y-77084729D01*
X104070447Y-77140662D01*
X104039471Y-77157577D01*
X103907912Y-77206646D01*
X103907906Y-77206649D01*
X103792812Y-77292809D01*
X103792809Y-77292812D01*
X103706649Y-77407906D01*
X103706645Y-77407913D01*
X103656403Y-77542620D01*
X103656401Y-77542627D01*
X103650000Y-77602155D01*
X103650000Y-78250000D01*
X104566988Y-78250000D01*
X104534075Y-78307007D01*
X104500000Y-78434174D01*
X104500000Y-78565826D01*
X104534075Y-78692993D01*
X104566988Y-78750000D01*
X103650000Y-78750000D01*
X103650000Y-79397844D01*
X103656401Y-79457372D01*
X103656403Y-79457379D01*
X103706645Y-79592086D01*
X103706649Y-79592093D01*
X103792809Y-79707187D01*
X103792812Y-79707190D01*
X103907906Y-79793350D01*
X103907913Y-79793354D01*
X104042620Y-79843596D01*
X104042627Y-79843598D01*
X104102155Y-79849999D01*
X104102172Y-79850000D01*
X104750000Y-79850000D01*
X104750000Y-78933012D01*
X104807007Y-78965925D01*
X104934174Y-79000000D01*
X105065826Y-79000000D01*
X105192993Y-78965925D01*
X105250000Y-78933012D01*
X105250000Y-79850000D01*
X105897828Y-79850000D01*
X105897844Y-79849999D01*
X105957372Y-79843598D01*
X105957379Y-79843596D01*
X106092086Y-79793354D01*
X106092093Y-79793350D01*
X106207187Y-79707190D01*
X106207190Y-79707187D01*
X106293350Y-79592093D01*
X106293354Y-79592086D01*
X106343596Y-79457379D01*
X106343598Y-79457372D01*
X106349999Y-79397844D01*
X106350000Y-79397827D01*
X106350000Y-78750000D01*
X105433012Y-78750000D01*
X105465925Y-78692993D01*
X105500000Y-78565826D01*
X105500000Y-78434174D01*
X105465925Y-78307007D01*
X105433012Y-78250000D01*
X106350000Y-78250000D01*
X106350000Y-77602172D01*
X106349999Y-77602155D01*
X106343598Y-77542627D01*
X106343596Y-77542620D01*
X106293354Y-77407913D01*
X106293350Y-77407906D01*
X106207190Y-77292812D01*
X106207187Y-77292809D01*
X106092093Y-77206649D01*
X106092088Y-77206646D01*
X105960528Y-77157577D01*
X105904595Y-77115705D01*
X105880178Y-77050241D01*
X105895030Y-76981968D01*
X105916175Y-76953720D01*
X106030104Y-76839792D01*
X106155051Y-76667816D01*
X106251557Y-76478412D01*
X106317246Y-76276243D01*
X106350500Y-76066287D01*
X106350500Y-75853713D01*
X106317246Y-75643757D01*
X106251557Y-75441588D01*
X106155051Y-75252184D01*
X106155049Y-75252181D01*
X106155048Y-75252179D01*
X106030109Y-75080213D01*
X105879786Y-74929890D01*
X105707820Y-74804951D01*
X105707115Y-74804591D01*
X105699054Y-74800485D01*
X105648259Y-74752512D01*
X105631463Y-74684692D01*
X105653999Y-74618556D01*
X105699054Y-74579515D01*
X105707816Y-74575051D01*
X105729789Y-74559086D01*
X105879786Y-74450109D01*
X105879788Y-74450106D01*
X105879792Y-74450104D01*
X106030104Y-74299792D01*
X106030106Y-74299788D01*
X106030109Y-74299786D01*
X106155048Y-74127820D01*
X106155047Y-74127820D01*
X106155051Y-74127816D01*
X106251557Y-73938412D01*
X106317246Y-73736243D01*
X106350500Y-73526287D01*
X106350500Y-73313713D01*
X106317246Y-73103757D01*
X106251557Y-72901588D01*
X106155051Y-72712184D01*
X106155049Y-72712181D01*
X106155048Y-72712179D01*
X106030109Y-72540213D01*
X105879786Y-72389890D01*
X105707820Y-72264951D01*
X105707115Y-72264591D01*
X105699054Y-72260485D01*
X105648259Y-72212512D01*
X105631463Y-72144692D01*
X105653999Y-72078556D01*
X105699054Y-72039515D01*
X105707816Y-72035051D01*
X105729789Y-72019086D01*
X105879786Y-71910109D01*
X105879788Y-71910106D01*
X105879792Y-71910104D01*
X106030104Y-71759792D01*
X106030106Y-71759788D01*
X106030109Y-71759786D01*
X106155048Y-71587820D01*
X106155047Y-71587820D01*
X106155051Y-71587816D01*
X106251557Y-71398412D01*
X106317246Y-71196243D01*
X106350500Y-70986287D01*
X106350500Y-70773713D01*
X106317246Y-70563757D01*
X106251557Y-70361588D01*
X106155051Y-70172184D01*
X106155049Y-70172181D01*
X106155048Y-70172179D01*
X106030109Y-70000213D01*
X105879786Y-69849890D01*
X105707820Y-69724951D01*
X105707115Y-69724591D01*
X105699054Y-69720485D01*
X105648259Y-69672512D01*
X105631463Y-69604692D01*
X105653999Y-69538556D01*
X105699054Y-69499515D01*
X105707816Y-69495051D01*
X105755185Y-69460636D01*
X105879786Y-69370109D01*
X105879788Y-69370106D01*
X105879792Y-69370104D01*
X106030104Y-69219792D01*
X106030106Y-69219788D01*
X106030109Y-69219786D01*
X106155048Y-69047820D01*
X106155047Y-69047820D01*
X106155051Y-69047816D01*
X106251557Y-68858412D01*
X106317246Y-68656243D01*
X106350500Y-68446287D01*
X106350500Y-68233713D01*
X106317246Y-68023757D01*
X106251557Y-67821588D01*
X106155051Y-67632184D01*
X106155049Y-67632181D01*
X106155048Y-67632179D01*
X106030109Y-67460213D01*
X105879786Y-67309890D01*
X105707820Y-67184951D01*
X105707115Y-67184591D01*
X105699054Y-67180485D01*
X105648259Y-67132512D01*
X105631463Y-67064692D01*
X105653999Y-66998556D01*
X105699054Y-66959515D01*
X105707816Y-66955051D01*
X105729789Y-66939086D01*
X105879786Y-66830109D01*
X105879788Y-66830106D01*
X105879792Y-66830104D01*
X106030104Y-66679792D01*
X106030106Y-66679788D01*
X106030109Y-66679786D01*
X106155048Y-66507820D01*
X106155047Y-66507820D01*
X106155051Y-66507816D01*
X106251557Y-66318412D01*
X106317246Y-66116243D01*
X106350500Y-65906287D01*
X106350500Y-65693713D01*
X106317246Y-65483757D01*
X106251557Y-65281588D01*
X106155051Y-65092184D01*
X106155049Y-65092181D01*
X106155048Y-65092179D01*
X106030109Y-64920213D01*
X105879786Y-64769890D01*
X105707820Y-64644951D01*
X105707115Y-64644591D01*
X105699054Y-64640485D01*
X105648259Y-64592512D01*
X105631463Y-64524692D01*
X105653999Y-64458556D01*
X105699054Y-64419515D01*
X105707816Y-64415051D01*
X105729789Y-64399086D01*
X105879786Y-64290109D01*
X105879788Y-64290106D01*
X105879792Y-64290104D01*
X106030104Y-64139792D01*
X106030106Y-64139788D01*
X106030109Y-64139786D01*
X106155048Y-63967820D01*
X106155047Y-63967820D01*
X106155051Y-63967816D01*
X106251557Y-63778412D01*
X106317246Y-63576243D01*
X106350500Y-63366287D01*
X106350500Y-63153713D01*
X106317246Y-62943757D01*
X106251557Y-62741588D01*
X106155051Y-62552184D01*
X106155049Y-62552181D01*
X106155048Y-62552179D01*
X106030109Y-62380213D01*
X105879786Y-62229890D01*
X105707820Y-62104951D01*
X105707115Y-62104591D01*
X105699054Y-62100485D01*
X105648259Y-62052512D01*
X105631463Y-61984692D01*
X105653999Y-61918556D01*
X105699054Y-61879515D01*
X105707816Y-61875051D01*
X105729789Y-61859086D01*
X105879786Y-61750109D01*
X105879788Y-61750106D01*
X105879792Y-61750104D01*
X106030104Y-61599792D01*
X106030106Y-61599788D01*
X106030109Y-61599786D01*
X106155048Y-61427820D01*
X106155047Y-61427820D01*
X106155051Y-61427816D01*
X106251557Y-61238412D01*
X106317246Y-61036243D01*
X106350500Y-60826287D01*
X106350500Y-60613713D01*
X106317246Y-60403757D01*
X106251557Y-60201588D01*
X106155051Y-60012184D01*
X106155049Y-60012181D01*
X106155048Y-60012179D01*
X106030109Y-59840213D01*
X105879786Y-59689890D01*
X105707820Y-59564951D01*
X105518414Y-59468444D01*
X105518413Y-59468443D01*
X105518412Y-59468443D01*
X105316243Y-59402754D01*
X105316241Y-59402753D01*
X105316240Y-59402753D01*
X105154957Y-59377208D01*
X105106287Y-59369500D01*
X104893713Y-59369500D01*
X104845042Y-59377208D01*
X104683760Y-59402753D01*
X104481585Y-59468444D01*
X104292179Y-59564951D01*
X104120213Y-59689890D01*
X103969890Y-59840213D01*
X103844951Y-60012179D01*
X103748444Y-60201585D01*
X103682753Y-60403760D01*
X103649500Y-60613713D01*
X68500500Y-60613713D01*
X68500500Y-55002311D01*
X68500587Y-54997675D01*
X68501351Y-54977268D01*
X68518500Y-54518915D01*
X68519191Y-54509695D01*
X68572576Y-54035894D01*
X68573953Y-54026756D01*
X68612007Y-53825639D01*
X75237500Y-53825639D01*
X75237500Y-54024360D01*
X75268587Y-54220637D01*
X75329993Y-54409629D01*
X75329994Y-54409632D01*
X75420074Y-54586422D01*
X75420213Y-54586694D01*
X75537019Y-54747464D01*
X75677536Y-54887981D01*
X75838306Y-55004787D01*
X75925149Y-55049035D01*
X76015367Y-55095005D01*
X76015370Y-55095006D01*
X76109866Y-55125709D01*
X76204364Y-55156413D01*
X76400639Y-55187500D01*
X76400640Y-55187500D01*
X76599360Y-55187500D01*
X76599361Y-55187500D01*
X76795636Y-55156413D01*
X76984632Y-55095005D01*
X77161694Y-55004787D01*
X77322464Y-54887981D01*
X77462981Y-54747464D01*
X77579787Y-54586694D01*
X77659796Y-54429667D01*
X77707769Y-54378872D01*
X77775590Y-54362077D01*
X77841725Y-54384614D01*
X77880765Y-54429668D01*
X77960641Y-54586432D01*
X77987730Y-54623715D01*
X78602352Y-54009093D01*
X78625792Y-54096571D01*
X78684311Y-54197930D01*
X78767070Y-54280689D01*
X78868429Y-54339208D01*
X78955905Y-54362647D01*
X78341283Y-54977268D01*
X78341283Y-54977269D01*
X78378567Y-55004358D01*
X78555562Y-55094542D01*
X78744477Y-55155924D01*
X78940679Y-55187000D01*
X79139321Y-55187000D01*
X79335520Y-55155924D01*
X79335523Y-55155924D01*
X79524437Y-55094542D01*
X79701425Y-55004362D01*
X79738716Y-54977268D01*
X79124095Y-54362647D01*
X79211571Y-54339208D01*
X79312930Y-54280689D01*
X79395689Y-54197930D01*
X79454208Y-54096571D01*
X79477647Y-54009094D01*
X80092268Y-54623715D01*
X80119364Y-54586422D01*
X80199234Y-54429669D01*
X80247208Y-54378872D01*
X80315029Y-54362077D01*
X80381164Y-54384614D01*
X80420203Y-54429667D01*
X80500213Y-54586694D01*
X80617019Y-54747464D01*
X80757536Y-54887981D01*
X80918306Y-55004787D01*
X81005149Y-55049035D01*
X81095367Y-55095005D01*
X81095370Y-55095006D01*
X81189866Y-55125709D01*
X81284364Y-55156413D01*
X81480639Y-55187500D01*
X81480640Y-55187500D01*
X81679360Y-55187500D01*
X81679361Y-55187500D01*
X81875636Y-55156413D01*
X82064632Y-55095005D01*
X82241694Y-55004787D01*
X82402464Y-54887981D01*
X82542981Y-54747464D01*
X82659787Y-54586694D01*
X82739515Y-54430218D01*
X82787490Y-54379423D01*
X82855311Y-54362628D01*
X82921446Y-54385165D01*
X82960484Y-54430218D01*
X83040213Y-54586694D01*
X83157019Y-54747464D01*
X83297536Y-54887981D01*
X83458306Y-55004787D01*
X83545149Y-55049035D01*
X83635367Y-55095005D01*
X83635370Y-55095006D01*
X83729866Y-55125709D01*
X83824364Y-55156413D01*
X84020639Y-55187500D01*
X84020640Y-55187500D01*
X84219360Y-55187500D01*
X84219361Y-55187500D01*
X84415636Y-55156413D01*
X84604632Y-55095005D01*
X84781694Y-55004787D01*
X84942464Y-54887981D01*
X85082981Y-54747464D01*
X85199787Y-54586694D01*
X85279515Y-54430218D01*
X85327490Y-54379423D01*
X85395311Y-54362628D01*
X85461446Y-54385165D01*
X85500484Y-54430218D01*
X85580213Y-54586694D01*
X85697019Y-54747464D01*
X85837536Y-54887981D01*
X85998306Y-55004787D01*
X86085149Y-55049035D01*
X86175367Y-55095005D01*
X86175370Y-55095006D01*
X86269866Y-55125709D01*
X86364364Y-55156413D01*
X86560639Y-55187500D01*
X86560640Y-55187500D01*
X86759360Y-55187500D01*
X86759361Y-55187500D01*
X86955636Y-55156413D01*
X87144632Y-55095005D01*
X87321694Y-55004787D01*
X87482464Y-54887981D01*
X87622981Y-54747464D01*
X87739787Y-54586694D01*
X87819515Y-54430218D01*
X87867490Y-54379423D01*
X87935311Y-54362628D01*
X88001446Y-54385165D01*
X88040484Y-54430218D01*
X88120213Y-54586694D01*
X88237019Y-54747464D01*
X88377536Y-54887981D01*
X88538306Y-55004787D01*
X88625149Y-55049035D01*
X88715367Y-55095005D01*
X88715370Y-55095006D01*
X88809866Y-55125709D01*
X88904364Y-55156413D01*
X89100639Y-55187500D01*
X89100640Y-55187500D01*
X89299360Y-55187500D01*
X89299361Y-55187500D01*
X89495636Y-55156413D01*
X89684632Y-55095005D01*
X89861694Y-55004787D01*
X90022464Y-54887981D01*
X90162981Y-54747464D01*
X90279787Y-54586694D01*
X90359515Y-54430218D01*
X90407490Y-54379423D01*
X90475311Y-54362628D01*
X90541446Y-54385165D01*
X90580484Y-54430218D01*
X90660213Y-54586694D01*
X90777019Y-54747464D01*
X90917536Y-54887981D01*
X91078306Y-55004787D01*
X91165149Y-55049035D01*
X91255367Y-55095005D01*
X91255370Y-55095006D01*
X91349866Y-55125709D01*
X91444364Y-55156413D01*
X91640639Y-55187500D01*
X91640640Y-55187500D01*
X91839360Y-55187500D01*
X91839361Y-55187500D01*
X92035636Y-55156413D01*
X92224632Y-55095005D01*
X92401694Y-55004787D01*
X92562464Y-54887981D01*
X92702981Y-54747464D01*
X92819787Y-54586694D01*
X92910005Y-54409632D01*
X92971413Y-54220636D01*
X93002500Y-54024361D01*
X93002500Y-53825639D01*
X92971413Y-53629364D01*
X92910005Y-53440368D01*
X92910005Y-53440367D01*
X92864035Y-53350149D01*
X92819787Y-53263306D01*
X92702981Y-53102536D01*
X92562464Y-52962019D01*
X92401694Y-52845213D01*
X92224632Y-52754994D01*
X92224629Y-52754993D01*
X92035637Y-52693587D01*
X91937498Y-52678043D01*
X91839361Y-52662500D01*
X91640639Y-52662500D01*
X91575214Y-52672862D01*
X91444362Y-52693587D01*
X91255370Y-52754993D01*
X91255367Y-52754994D01*
X91078305Y-52845213D01*
X90917533Y-52962021D01*
X90777021Y-53102533D01*
X90660213Y-53263305D01*
X90580485Y-53419780D01*
X90532510Y-53470576D01*
X90464689Y-53487371D01*
X90398554Y-53464833D01*
X90359515Y-53419780D01*
X90340179Y-53381832D01*
X90279787Y-53263306D01*
X90162981Y-53102536D01*
X90022464Y-52962019D01*
X89861694Y-52845213D01*
X89684632Y-52754994D01*
X89684629Y-52754993D01*
X89495637Y-52693587D01*
X89397498Y-52678043D01*
X89299361Y-52662500D01*
X89100639Y-52662500D01*
X89035214Y-52672862D01*
X88904362Y-52693587D01*
X88715370Y-52754993D01*
X88715367Y-52754994D01*
X88538305Y-52845213D01*
X88377533Y-52962021D01*
X88237021Y-53102533D01*
X88120213Y-53263305D01*
X88040485Y-53419780D01*
X87992510Y-53470576D01*
X87924689Y-53487371D01*
X87858554Y-53464833D01*
X87819515Y-53419780D01*
X87800179Y-53381832D01*
X87739787Y-53263306D01*
X87622981Y-53102536D01*
X87482464Y-52962019D01*
X87321694Y-52845213D01*
X87144632Y-52754994D01*
X87144629Y-52754993D01*
X86955637Y-52693587D01*
X86857498Y-52678043D01*
X86759361Y-52662500D01*
X86560639Y-52662500D01*
X86495214Y-52672862D01*
X86364362Y-52693587D01*
X86175370Y-52754993D01*
X86175367Y-52754994D01*
X85998305Y-52845213D01*
X85837533Y-52962021D01*
X85697021Y-53102533D01*
X85580213Y-53263305D01*
X85500485Y-53419780D01*
X85452510Y-53470576D01*
X85384689Y-53487371D01*
X85318554Y-53464833D01*
X85279515Y-53419780D01*
X85260179Y-53381832D01*
X85199787Y-53263306D01*
X85082981Y-53102536D01*
X84942464Y-52962019D01*
X84781694Y-52845213D01*
X84604632Y-52754994D01*
X84604629Y-52754993D01*
X84415637Y-52693587D01*
X84317498Y-52678043D01*
X84219361Y-52662500D01*
X84020639Y-52662500D01*
X83955214Y-52672862D01*
X83824362Y-52693587D01*
X83635370Y-52754993D01*
X83635367Y-52754994D01*
X83458305Y-52845213D01*
X83297533Y-52962021D01*
X83157021Y-53102533D01*
X83040213Y-53263305D01*
X82960485Y-53419780D01*
X82912510Y-53470576D01*
X82844689Y-53487371D01*
X82778554Y-53464833D01*
X82739515Y-53419780D01*
X82720179Y-53381832D01*
X82659787Y-53263306D01*
X82542981Y-53102536D01*
X82402464Y-52962019D01*
X82241694Y-52845213D01*
X82064632Y-52754994D01*
X82064629Y-52754993D01*
X81875637Y-52693587D01*
X81777498Y-52678043D01*
X81679361Y-52662500D01*
X81480639Y-52662500D01*
X81415214Y-52672862D01*
X81284362Y-52693587D01*
X81095370Y-52754993D01*
X81095367Y-52754994D01*
X80918305Y-52845213D01*
X80757533Y-52962021D01*
X80617021Y-53102533D01*
X80500213Y-53263305D01*
X80420204Y-53420331D01*
X80372229Y-53471127D01*
X80304408Y-53487922D01*
X80238273Y-53465384D01*
X80199234Y-53420331D01*
X80119358Y-53263567D01*
X80092268Y-53226283D01*
X79477647Y-53840904D01*
X79454208Y-53753429D01*
X79395689Y-53652070D01*
X79312930Y-53569311D01*
X79211571Y-53510792D01*
X79124094Y-53487352D01*
X79738716Y-52872731D01*
X79738715Y-52872730D01*
X79701432Y-52845641D01*
X79524437Y-52755457D01*
X79335522Y-52694075D01*
X79139321Y-52663000D01*
X78940679Y-52663000D01*
X78744479Y-52694075D01*
X78744476Y-52694075D01*
X78555562Y-52755457D01*
X78378564Y-52845643D01*
X78341283Y-52872729D01*
X78341282Y-52872730D01*
X78955906Y-53487352D01*
X78868429Y-53510792D01*
X78767070Y-53569311D01*
X78684311Y-53652070D01*
X78625792Y-53753429D01*
X78602352Y-53840905D01*
X77987730Y-53226282D01*
X77987729Y-53226283D01*
X77960641Y-53263566D01*
X77880764Y-53420332D01*
X77832790Y-53471127D01*
X77764969Y-53487922D01*
X77698834Y-53465384D01*
X77659796Y-53420332D01*
X77579787Y-53263306D01*
X77462981Y-53102536D01*
X77322464Y-52962019D01*
X77161694Y-52845213D01*
X76984632Y-52754994D01*
X76984629Y-52754993D01*
X76795637Y-52693587D01*
X76697498Y-52678043D01*
X76599361Y-52662500D01*
X76400639Y-52662500D01*
X76335214Y-52672862D01*
X76204362Y-52693587D01*
X76015370Y-52754993D01*
X76015367Y-52754994D01*
X75838305Y-52845213D01*
X75677533Y-52962021D01*
X75537021Y-53102533D01*
X75420213Y-53263305D01*
X75329994Y-53440367D01*
X75329993Y-53440370D01*
X75268587Y-53629362D01*
X75237500Y-53825639D01*
X68612007Y-53825639D01*
X68662592Y-53558289D01*
X68664655Y-53549250D01*
X68681088Y-53487922D01*
X68788058Y-53088704D01*
X68790782Y-53079874D01*
X68948258Y-52629832D01*
X68951633Y-52621230D01*
X69142304Y-52184209D01*
X69146326Y-52175861D01*
X69369096Y-51754359D01*
X69373732Y-51746328D01*
X69627394Y-51342629D01*
X69632618Y-51334968D01*
X69915733Y-50951359D01*
X69921499Y-50944127D01*
X70232518Y-50582717D01*
X70238799Y-50575948D01*
X70575948Y-50238799D01*
X70582717Y-50232518D01*
X70944127Y-49921499D01*
X70951352Y-49915738D01*
X71334968Y-49632618D01*
X71342619Y-49627400D01*
X71746335Y-49373727D01*
X71754352Y-49369099D01*
X72175866Y-49146323D01*
X72184209Y-49142304D01*
X72621230Y-48951633D01*
X72629832Y-48948258D01*
X73079874Y-48790782D01*
X73088704Y-48788058D01*
X73549251Y-48664654D01*
X73558291Y-48662592D01*
X74026756Y-48573953D01*
X74035894Y-48572576D01*
X74509695Y-48519191D01*
X74518915Y-48518500D01*
X74960526Y-48501977D01*
X74997676Y-48500587D01*
X75002312Y-48500500D01*
X75065892Y-48500500D01*
X163934108Y-48500500D01*
X163997688Y-48500500D01*
X164002324Y-48500587D01*
G37*
%TD.AperFunction*%
%TD*%
M02*
