%TF.GenerationSoftware,KiCad,Pcbnew,10.0.6*%
%TF.CreationDate,2026-10-07T00:53:55-05:00*%
%TF.ProjectId,SpotifyDisplay,53706f74-6966-4794-9469-73706c61792e,rev?*%
%TF.SameCoordinates,Original*%
%TF.FileFunction,Soldermask,Bot*%
%TF.FilePolarity,Negative*%
%FSLAX46Y46*%
G04 Gerber Fmt 4.6, Leading zero omitted, Abs format (unit mm)*
G04 Created by KiCad (PCBNEW 10.0.6) date 2026-10-07 00:53:55*
%MOMM*%
%LPD*%
G01*
G04 APERTURE LIST*
G04 Aperture macros list*
%AMRoundRect*
0 Rectangle with rounded corners*
0 $1 Rounding radius*
0 $2 $3 $4 $5 $6 $7 $8 $9 X,Y pos of 4 corners*
0 Add a 4 corners polygon primitive as box body*
4,1,4,$2,$3,$4,$5,$6,$7,$8,$9,$2,$3,0*
0 Add four circle primitives for the rounded corners*
1,1,$1+$1,$2,$3*
1,1,$1+$1,$4,$5*
1,1,$1+$1,$6,$7*
1,1,$1+$1,$8,$9*
0 Add four rect primitives between the rounded corners*
20,1,$1+$1,$2,$3,$4,$5,0*
20,1,$1+$1,$4,$5,$6,$7,0*
20,1,$1+$1,$6,$7,$8,$9,0*
20,1,$1+$1,$8,$9,$2,$3,0*%
G04 Aperture macros list end*
%ADD10C,1.524000*%
%ADD11C,2.200000*%
%ADD12C,1.700000*%
%ADD13C,4.000000*%
%ADD14RoundRect,0.750000X-1.250000X-0.750000X1.250000X-0.750000X1.250000X0.750000X-1.250000X0.750000X0*%
%ADD15C,1.800000*%
%ADD16R,1.800000X1.800000*%
%ADD17R,1.700000X1.700000*%
G04 APERTURE END LIST*
D10*
%TO.C,U1*%
X76500000Y-53925000D03*
X79040000Y-53925000D03*
X81580000Y-53925000D03*
X84120000Y-53925000D03*
X86660000Y-53925000D03*
X89200000Y-53925000D03*
X91740000Y-53925000D03*
X91740000Y-69165000D03*
X89200000Y-69165000D03*
X86660000Y-69165000D03*
X84120000Y-69165000D03*
X81580000Y-69165000D03*
X79040000Y-69165000D03*
X76500000Y-69165000D03*
%TD*%
D11*
%TO.C,SW1*%
X84610000Y-95960000D03*
X90960000Y-93420000D03*
D12*
X93500000Y-98500000D03*
D13*
X88420000Y-98500000D03*
D12*
X83340000Y-98500000D03*
%TD*%
D11*
%TO.C,SW2*%
X107610000Y-95960000D03*
X113960000Y-93420000D03*
D12*
X116500000Y-98500000D03*
D13*
X111420000Y-98500000D03*
D12*
X106340000Y-98500000D03*
%TD*%
D11*
%TO.C,SW3*%
X129610000Y-95960000D03*
X135960000Y-93420000D03*
D12*
X138500000Y-98500000D03*
D13*
X133420000Y-98500000D03*
D12*
X128340000Y-98500000D03*
%TD*%
D14*
%TO.C,J2*%
X153450000Y-103400000D03*
X153450000Y-94600000D03*
D15*
X146450000Y-101500000D03*
X146450000Y-99000000D03*
D16*
X146450000Y-96500000D03*
%TD*%
D12*
%TO.C,J1*%
X105000000Y-60720000D03*
X105000000Y-63260000D03*
X105000000Y-65800000D03*
X105000000Y-68340000D03*
X105000000Y-70880000D03*
X105000000Y-73420000D03*
X105000000Y-75960000D03*
D17*
X105000000Y-78500000D03*
%TD*%
M02*
