M48
; DRILL file KiCad 10.0.6 date 2026-10-07T00:54:29
; FORMAT={-:-/ absolute / metric / decimal}
; #@! TF.CreationDate,2026-10-07T00:54:29-05:00
; #@! TF.GenerationSoftware,Kicad,Pcbnew,10.0.6
; #@! TF.FileFunction,Plated,1,2,PTH
FMAT,2
METRIC
; #@! TA.AperFunction,Plated,PTH,ComponentDrill
T1C0.889
; #@! TA.AperFunction,Plated,PTH,ComponentDrill
T2C1.000
; #@! TA.AperFunction,Plated,PTH,ComponentDrill
T3C1.500
; #@! TA.AperFunction,Plated,PTH,ComponentDrill
T4C1.800
%
G90
G05
T1
X76.5Y-53.925
X76.5Y-69.165
X79.04Y-53.925
X79.04Y-69.165
X81.58Y-53.925
X81.58Y-69.165
X84.12Y-53.925
X84.12Y-69.165
X86.66Y-53.925
X86.66Y-69.165
X89.2Y-53.925
X89.2Y-69.165
X91.74Y-53.925
X91.74Y-69.165
T2
X105.0Y-60.72
X105.0Y-63.26
X105.0Y-65.8
X105.0Y-68.34
X105.0Y-70.88
X105.0Y-73.42
X105.0Y-75.96
X105.0Y-78.5
X146.45Y-96.5
X146.45Y-99.0
X146.45Y-101.5
T3
X84.61Y-95.96
X90.96Y-93.42
X107.61Y-95.96
X113.96Y-93.42
X129.61Y-95.96
X135.96Y-93.42
T4
G00X153.3Y-94.6
M15
G01X153.6Y-94.6
M16
G05
G00X153.3Y-103.4
M15
G01X153.6Y-103.4
M16
G05
M30
